<svg id="Logo" xmlns="http://www.w3.org/2000/svg" width="140" height="48" viewBox="0 0 140 48">
  <path id="Educação" d="M-11391.509,898l.646-2.346a6.1,6.1,0,0,1-1.88-.529,4.377,4.377,0,0,1-1.876-1.681,4.79,4.79,0,0,1-.66-2.544v-.192a4.854,4.854,0,0,1,.66-2.553,4.373,4.373,0,0,1,1.876-1.686,6.44,6.44,0,0,1,2.839-.587,6.59,6.59,0,0,1,2.668.529,4.411,4.411,0,0,1,1.851,1.422,3.364,3.364,0,0,1,.555,1.169h-1.869a1.864,1.864,0,0,0-.206-.305,2.813,2.813,0,0,0-1.223-.829,5.15,5.15,0,0,0-1.775-.3,3.979,3.979,0,0,0-2.681.811,2.863,2.863,0,0,0-.727,1.044,2.983,2.983,0,0,0-.207,1.273v.244a2.906,2.906,0,0,0,.207,1.265,2.8,2.8,0,0,0,.721,1.038,4.007,4.007,0,0,0,2.687.808,5.062,5.062,0,0,0,1.8-.294,2.736,2.736,0,0,0,1.208-.811,1.783,1.783,0,0,0,.41-.942l1.76-.017a3.3,3.3,0,0,1-.655,1.794,4.47,4.47,0,0,1-1.851,1.419,6.271,6.271,0,0,1-1.771.456l-.651,2.341Zm-20.081-2.282h-.135a6.437,6.437,0,0,1-2.7-.593,4.319,4.319,0,0,1-1.876-1.681,4.764,4.764,0,0,1-.66-2.544v-.192a4.827,4.827,0,0,1,.66-2.553,4.334,4.334,0,0,1,1.876-1.686,6.422,6.422,0,0,1,2.836-.587,6.583,6.583,0,0,1,2.665.529,4.4,4.4,0,0,1,1.856,1.422,3.358,3.358,0,0,1,.552,1.169h-1.866a2.545,2.545,0,0,0-.208-.305,2.806,2.806,0,0,0-1.229-.829,5.1,5.1,0,0,0-1.77-.3,3.984,3.984,0,0,0-2.681.811,2.856,2.856,0,0,0-.724,1.044,2.969,2.969,0,0,0-.209,1.273v.244a2.937,2.937,0,0,0,.209,1.265,2.8,2.8,0,0,0,.721,1.038,3.973,3.973,0,0,0,2.684.808,5.016,5.016,0,0,0,1.79-.294,2.694,2.694,0,0,0,1.215-.811,1.81,1.81,0,0,0,.409-.942l1.763-.032a3.308,3.308,0,0,1-.655,1.791,4.482,4.482,0,0,1-1.856,1.422,6.689,6.689,0,0,1-2.6.529Zm40.515-.59h-.012a4.326,4.326,0,0,1-1.845-1.686,4.878,4.878,0,0,1-.656-2.553v-.16a4.906,4.906,0,0,1,.656-2.559,4.269,4.269,0,0,1,1.851-1.692,6.908,6.908,0,0,1,2.79-.59,6.92,6.92,0,0,1,2.792.59,4.318,4.318,0,0,1,1.845,1.692,4.912,4.912,0,0,1,.652,2.559v.16a4.919,4.919,0,0,1-.652,2.553,4.377,4.377,0,0,1-1.839,1.686,6.921,6.921,0,0,1-2.792.59A6.909,6.909,0,0,1-11371.075,895.127Zm.178-6.734a2.88,2.88,0,0,0-.72,1.05,2.994,2.994,0,0,0-.21,1.271v.206a2.968,2.968,0,0,0,.21,1.265,2.872,2.872,0,0,0,.72,1.041,4.612,4.612,0,0,0,2.612.817,4.622,4.622,0,0,0,2.613-.817,2.9,2.9,0,0,0,.715-1.041,2.975,2.975,0,0,0,.21-1.265v-.206a3.1,3.1,0,0,0-.21-1.271,2.9,2.9,0,0,0-.715-1.05,4.533,4.533,0,0,0-2.613-.834A4.537,4.537,0,0,0-11370.9,888.394Zm-54.677,6.78v.009a3.826,3.826,0,0,1-1.561-1.524,4.606,4.606,0,0,1-.557-2.285v-5.3h1.736v5.344a2.593,2.593,0,0,0,.158,1.05,2.567,2.567,0,0,0,.551.9,3.248,3.248,0,0,0,2,.7,3.234,3.234,0,0,0,2-.7,2.538,2.538,0,0,0,.561-.893,2.592,2.592,0,0,0,.16-1.053v-5.353h1.736v5.3a4.56,4.56,0,0,1-.56,2.285,3.788,3.788,0,0,1-1.562,1.526,4.826,4.826,0,0,1-2.339.529c-.049,0-.1,0-.146,0A4.793,4.793,0,0,1-11425.574,895.174Zm49.791.407-.944-2.166h-4.821l-.937,2.166h-1.76V895.3l4.154-9.214h1.909l4.154,9.214v.276Zm-5.061-3.815h3.382l-1.69-3.882Zm-16.648,3.791-.938-2.169h-4.821l-.937,2.169h-1.762v-.276l4.154-9.217h1.909l4.154,9.217v.276Zm-5.039-3.791h3.378l-1.687-3.879Zm-46.47,3.791v-9.493h7.911v1.622h-6.181v2.3h5.9v1.622h-5.9v2.326h6.181v1.622Zm10.012,0v-9.49h4.394a5.441,5.441,0,0,1,3.8,1.186,4.469,4.469,0,0,1,1.294,3.472v.189a4.449,4.449,0,0,1-1.294,3.463,5.468,5.468,0,0,1-3.8,1.18Zm1.733-1.622h2.66a3.659,3.659,0,0,0,2.537-.736h-.026a2.789,2.789,0,0,0,.654-1.032,2.92,2.92,0,0,0,.17-1.227v-.227q0-3.031-3.35-3.027h-2.646Zm59.558-8.955h-.031a4.163,4.163,0,0,1-.683-.058l-.015-.044c-.225-.038-.508-.1-.792-.169a5.723,5.723,0,0,0-1.4-.218,3.3,3.3,0,0,0-1.523.387V883.4a3.438,3.438,0,0,1,1.555-.4,5.285,5.285,0,0,1,1.409.244c.351.084.631.148.838.186a3.45,3.45,0,0,0,.669.058,3.713,3.713,0,0,0,1.555-.361v1.521a3.839,3.839,0,0,1-1.555.329Z" transform="translate(11476.003 -850)" fill="#fff"/>
  <path id="Atitus" d="M-11358.626,899.376V883.392h4.959v16.35c0,3.255,2.42,6.172,6.561,6.172s6.56-2.917,6.56-6.172l-.006-16.35h4.959v15.984c0,7.266-5.039,11.624-11.519,11.624S-11358.626,906.668-11358.626,899.376Zm26.949,9.4,1.755-4.672a24.159,24.159,0,0,0,8.861,1.812c3.9,0,6.729-.723,6.729-2.723,0-3.089-5.669-3.089-10.984-4.9-4.253-1.454-6.025-3.646-6.025-7.292,0-5.089,4.965-8,11.686-8a24.575,24.575,0,0,1,9.212,1.817l-1.767,4.723a21.474,21.474,0,0,0-8.132-1.452c-3.555,0-5.669.734-5.669,2.54,0,2.543,5.5,3.075,9.571,4.36,4.605,1.452,7.438,2.906,7.438,7.629,0,5.449-4.6,8.332-12.758,8.332A20.166,20.166,0,0,1-11331.677,908.771Zm-45.022,1.863V888.115h-8.855v-4.723l23.032.009v4.715h-9.212v22.519Zm-17.723,0V883.392h4.965v27.243Zm-18.427,0V888.115h-8.861v-4.723l23.038.009v4.715h-9.22v22.519Zm-13.476,0-8.5-27.234-5.781,18.516h7.913l1.416,4.723h-10.8l-1.252,3.995h-5.67l8.506-27.243h11.338l8.508,27.243Z" transform="translate(11449.001 -883)" fill="#fff"/>
</svg>
